<svg width="896" height="661" viewBox="0 0 896 661" fill="none" xmlns="http://www.w3.org/2000/svg">
<path d="M-2 429.5V660.5H895.5V429.5C678.5 310.5 269 297 -2 429.5Z" fill="white"/>
<g clip-path="url(#clip0_527_2)">
<path d="M428.105 115.049L422.762 113.359L400.012 78.0341L391.224 83.6622L411.278 114.982C410.765 115.874 410.414 117.032 410.3 118.522L430.658 119.395C430.649 119.395 431.285 115.922 428.105 115.049Z" stroke="#444444" stroke-miterlimit="10"/>
<path d="M414.087 115.599H421.206C422.515 115.599 423.578 116.662 423.578 117.972C423.578 119.281 422.515 120.344 421.206 120.344H414.087" stroke="#444444" stroke-miterlimit="10"/>
<path d="M395.542 89.4706L398.427 94.2445C404.928 92.2324 403.173 82.8554 403.173 82.8554L401.142 78.8693L395.542 89.4706Z" fill="#444444"/>
<path d="M647.582 118.048H480.03L416.137 192.874V413.907L494.883 311.045V192.874H568.513L647.582 118.048Z" fill="#43CC74"/>
<path d="M402.622 192.209L309.564 192.874L247 118.048H463.468L402.622 192.209Z" fill="#43CC74"/>
<path d="M444.932 453C493.156 453 532.249 448.538 532.249 443.035C532.249 437.531 493.156 433.069 444.932 433.069C396.709 433.069 357.616 437.531 357.616 443.035C357.616 448.538 396.709 453 444.932 453Z" fill="#444444"/>
<path d="M360.53 155.935C357.35 155.935 354.778 153.363 354.778 150.184V126.58C354.778 123.401 357.35 120.828 360.53 120.828H367.999C371.179 120.828 373.751 123.401 373.751 126.58V142.714C373.751 150.013 367.828 155.935 360.53 155.935Z" fill="white"/>
<path d="M342.004 150.241C344.861 150.241 347.186 147.925 347.186 145.059V123.809C347.186 120.952 344.87 118.627 342.004 118.627H335.275C332.418 118.627 330.093 120.942 330.093 123.809V138.33C330.093 144.907 335.427 150.241 342.004 150.241Z" fill="white"/>
<path d="M375.544 118.921H343.389V98.99H384.2V110.265C384.19 115.049 380.318 118.921 375.544 118.921Z" fill="#444444"/>
<path d="M319.842 98.99H317.65C309.232 98.99 305.15 109.288 311.282 115.049L331.137 133.736C334.98 137.352 341.254 135.91 343.152 130.993C346.559 122.157 343.323 116.339 343.323 116.339L342.744 98.9805H319.842V98.99Z" fill="#444444"/>
<path d="M343.38 98.99H340.95C331.602 98.99 327.065 110.427 333.87 116.833L355.936 137.599C360.207 141.614 367.183 140.019 369.29 134.552C373.077 124.739 369.48 118.275 369.48 118.275L368.834 98.99H343.38Z" fill="#444444"/>
<path d="M402.707 79.3533L389.885 56.281L386.544 78.205L393.587 90.2774C394.213 91.3593 395.599 91.7105 396.69 91.0936C403.685 87.1359 402.707 79.3533 402.707 79.3533Z" fill="#43CC74"/>
<path d="M378.392 56.281C377.822 58.9764 374.909 61.0265 371.378 61.0265C367.847 61.0265 364.934 58.9764 364.364 56.281H359.875C355.006 56.281 350.887 60.2767 350.242 65.6295L346.227 98.99H384.751L389.885 56.281H378.392Z" fill="#43CC74"/>
<path d="M360.53 155.935C357.35 155.935 354.778 153.363 354.778 150.184V126.58C354.778 123.401 357.35 120.828 360.53 120.828H367.999C371.179 120.828 373.751 123.401 373.751 126.58V142.714C373.751 150.013 367.828 155.935 360.53 155.935Z" fill="white"/>
<path d="M342.004 150.241C344.861 150.241 347.186 147.925 347.186 145.059V123.809C347.186 120.952 344.87 118.627 342.004 118.627H335.275C332.418 118.627 330.093 120.942 330.093 123.809V138.33C330.093 144.907 335.427 150.241 342.004 150.241Z" fill="white"/>
<path d="M375.544 118.921H343.389V98.99H384.2V110.265C384.19 115.049 380.318 118.921 375.544 118.921Z" fill="#444444"/>
<path d="M319.842 98.99H317.65C309.232 98.99 305.15 109.288 311.282 115.049L331.137 133.736C334.98 137.352 341.254 135.91 343.152 130.993C346.559 122.157 343.323 116.339 343.323 116.339L342.744 98.9805H319.842V98.99Z" fill="#444444"/>
<path d="M343.38 98.99H340.95C331.602 98.99 327.065 110.427 333.87 116.833L355.936 137.599C360.207 141.614 367.183 140.019 369.29 134.552C373.077 124.739 369.48 118.275 369.48 118.275L368.834 98.99H343.38Z" fill="#444444"/>
<path d="M402.707 79.3533L389.885 56.281L386.544 78.205L393.587 90.2774C394.213 91.3593 395.599 91.7105 396.69 91.0936C403.685 87.1359 402.707 79.3533 402.707 79.3533Z" fill="#43CC74"/>
<path d="M378.392 56.281C377.822 58.9764 374.909 61.0265 371.378 61.0265C367.847 61.0265 364.934 58.9764 364.364 56.281H359.875C355.006 56.281 350.887 60.2767 350.242 65.6295L346.227 98.99H384.751L389.885 56.281H378.392Z" fill="#43CC74"/>
<path d="M357.085 33.9774C354.437 42.1681 359.799 51.0041 368.531 51.9437C369.138 52.0101 369.48 52.0101 369.48 52.0101" stroke="#444444" stroke-miterlimit="10"/>
<path d="M366.633 18.792C365.731 19.9214 363.956 22.446 362.637 24.3442" stroke="#444444" stroke-miterlimit="10"/>
<path d="M369.006 28.7574C370.054 28.7574 370.904 27.9076 370.904 26.8592C370.904 25.8109 370.054 24.9611 369.006 24.9611C367.957 24.9611 367.107 25.8109 367.107 26.8592C367.107 27.9076 367.957 28.7574 369.006 28.7574Z" fill="#444444"/>
<path d="M365.209 24.012C360.17 24.012 357.009 25.8817 355.149 27.6375C353.232 29.4502 353.63 32.6487 356.003 33.7876C357.379 34.4519 358.566 34.4519 358.566 34.4519" stroke="#444444" stroke-miterlimit="10"/>
<path d="M359.04 38.7229C363.785 39.672 366.633 36.8247 366.633 36.8247" stroke="#444444" stroke-miterlimit="10"/>
<path d="M394.27 13.7523C393.767 10.943 392.068 7.78257 389.363 5.07766C384.362 0.0759655 377.813 -1.49952 374.747 1.56604C373.485 2.82832 373.02 4.67905 373.248 6.76704C367.174 3.55912 361.536 2.88527 359.799 5.4573C357.749 8.50387 361.954 14.9197 369.205 19.8075C372.897 22.2941 376.655 23.8981 379.73 24.4675C377.642 27.9222 377.111 31.1681 378.677 32.7341C380.252 34.3096 383.546 33.7591 387.029 31.6332C390.825 34.4425 387.978 38.2388 387.978 38.2388C385.13 42.0352 382.283 41.0861 382.283 41.0861C378.487 46.7806 380.385 48.6788 380.385 48.6788C385.13 50.577 388.927 46.7806 388.927 46.7806C391.774 44.5028 392.913 42.225 393.369 40.7634C394.327 37.6884 395.836 34.7936 398.048 32.4494C398.892 31.5572 399.727 30.7885 400.42 30.1905C402.195 28.653 403.41 26.5081 403.543 24.1638C403.941 17.4538 396.444 14.4736 394.27 13.7523Z" fill="#444444"/>
<path d="M365.105 51.1179L365.219 56.281L372.812 51.5355C369.006 51.5355 365.105 51.1179 365.105 51.1179Z" fill="#444444"/>
<path d="M357.085 33.9774C354.437 42.1681 359.799 51.0041 368.531 51.9437C369.138 52.0101 369.48 52.0101 369.48 52.0101" stroke="#444444" stroke-miterlimit="10"/>
<path d="M366.633 18.792C365.731 19.9214 363.956 22.446 362.637 24.3442" stroke="#444444" stroke-miterlimit="10"/>
<path d="M369.006 28.7574C370.054 28.7574 370.904 27.9076 370.904 26.8592C370.904 25.8109 370.054 24.9611 369.006 24.9611C367.957 24.9611 367.107 25.8109 367.107 26.8592C367.107 27.9076 367.957 28.7574 369.006 28.7574Z" fill="#444444"/>
<path d="M365.209 24.012C360.17 24.012 357.009 25.8817 355.149 27.6375C353.232 29.4502 353.63 32.6487 356.003 33.7876C357.379 34.4519 358.566 34.4519 358.566 34.4519" stroke="#444444" stroke-miterlimit="10"/>
<path d="M359.04 38.7229C363.785 39.672 366.633 36.8247 366.633 36.8247" stroke="#444444" stroke-miterlimit="10"/>
<path d="M394.27 13.7523C393.767 10.943 392.068 7.78257 389.363 5.07766C384.362 0.0759655 377.813 -1.49952 374.747 1.56604C373.485 2.82832 373.02 4.67905 373.248 6.76704C367.174 3.55912 361.536 2.88527 359.799 5.4573C357.749 8.50387 361.954 14.9197 369.205 19.8075C372.897 22.2941 376.655 23.8981 379.73 24.4675C377.642 27.9222 377.111 31.1681 378.677 32.7341C380.252 34.3096 383.546 33.7591 387.029 31.6332C390.825 34.4425 387.978 38.2388 387.978 38.2388C385.13 42.0352 382.283 41.0861 382.283 41.0861C378.487 46.7806 380.385 48.6788 380.385 48.6788C385.13 50.577 388.927 46.7806 388.927 46.7806C391.774 44.5028 392.913 42.225 393.369 40.7634C394.327 37.6884 395.836 34.7936 398.048 32.4494C398.892 31.5572 399.727 30.7885 400.42 30.1905C402.195 28.653 403.41 26.5081 403.543 24.1638C403.941 17.4538 396.444 14.4736 394.27 13.7523Z" fill="#444444"/>
<path d="M365.105 51.1179L365.219 56.281L372.812 51.5355C369.006 51.5355 365.105 51.1179 365.105 51.1179Z" fill="#444444"/>
</g>
<defs>
<clipPath id="clip0_527_2">
<rect width="400.582" height="453" fill="white" transform="translate(247)"/>
</clipPath>
</defs>
</svg>
