<svg width="136" height="159" viewBox="0 0 136 159" fill="none" xmlns="http://www.w3.org/2000/svg">
<mask id="mask0_6_86" style="mask-type:alpha" maskUnits="userSpaceOnUse" x="21" y="-36" width="239" height="199">
<path opacity="0.5" d="M254.798 95.0081C251.395 99.1033 246.123 101.394 239.402 101.959C232.677 102.525 224.554 101.355 215.554 98.5806C197.557 93.0323 176.178 81.1046 155.707 64.0936C135.236 47.0825 119.597 28.2478 110.848 11.5701C106.473 3.22991 103.837 -4.54128 103.161 -11.2558C102.487 -17.9671 103.774 -23.5696 107.177 -27.6649C110.58 -31.7602 115.852 -34.0511 122.574 -34.6162C129.298 -35.1815 137.421 -34.0121 146.421 -31.2375C164.418 -25.6891 185.798 -13.7614 206.268 3.24962C226.739 20.2607 242.378 39.0954 251.127 55.7731C255.502 64.1133 258.139 71.8845 258.814 78.5989C259.489 85.3103 258.202 90.9128 254.798 95.0081Z" stroke="#EEEEEE" stroke-width="1.29689"/>
<path opacity="0.5" d="M214.307 124.836C210.904 128.932 205.631 131.223 198.91 131.788C192.185 132.353 184.063 131.184 175.063 128.409C157.065 122.861 135.686 110.933 115.216 93.922C94.7449 76.9109 79.1054 58.0762 70.3565 41.3985C65.9814 33.0583 63.345 25.2871 62.6698 18.5726C61.995 11.8613 63.2823 6.25881 66.6854 2.16353C70.0886 -1.93175 75.3608 -4.22274 82.0823 -4.78778C88.8069 -5.35309 96.9294 -4.18369 105.93 -1.40906C123.927 4.13931 145.306 16.067 165.777 33.078C186.247 50.0891 201.887 68.9238 210.636 85.6015C215.011 93.9417 217.647 101.713 218.322 108.427C218.997 115.139 217.71 120.741 214.307 124.836Z" stroke="#EEEEEE" stroke-width="1.29689"/>
<path opacity="0.5" d="M173.815 154.665C170.412 158.76 165.14 161.051 158.418 161.616C151.694 162.181 143.571 161.012 134.571 158.237C116.574 152.689 95.1945 140.761 74.7238 123.75C54.2532 106.739 38.6137 87.9046 29.8648 71.2269C25.4897 62.8867 22.8533 55.1156 22.1781 48.4011C21.5033 41.6897 22.7906 36.0872 26.1937 31.992C29.5969 27.8967 34.8691 25.6057 41.5906 25.0406C48.3152 24.4753 56.4377 25.6447 65.4378 28.4194C83.4351 33.9677 104.814 45.8954 125.285 62.9064C145.756 79.9175 161.395 98.7522 170.144 115.43C174.519 123.77 177.156 131.541 177.831 138.256C178.505 144.967 177.218 150.57 173.815 154.665Z" stroke="#EEEEEE" stroke-width="1.29689"/>
</mask>
<g mask="url(#mask0_6_86)">
<rect x="-145" width="281" height="159" fill="#D9D9D9"/>
</g>
</svg>
