<svg width="167" height="67" viewBox="0 0 167 67" fill="none" xmlns="http://www.w3.org/2000/svg">
<path opacity="0.5" d="M31.8095 0L63.7034 10.2061C69.6286 12.1021 72.5912 13.0501 74.2903 15.3778C75.9894 17.7055 75.9894 20.8161 75.9894 27.0373V58.3175L31.8095 44.1799V0Z" fill="#4D4D4D"/>
<path d="M87.5028 14.573V19.0344H93.4938V21.8642H87.5028V26.5805H94.2586V29.4868H83.9337V11.6667H94.2586V14.573H87.5028ZM105.329 15.1593C107.011 15.1593 108.371 15.6947 109.408 16.7654C110.444 17.8192 110.963 19.2978 110.963 21.2013V29.4868H107.394V21.6857C107.394 20.564 107.113 19.7057 106.552 19.1109C105.992 18.499 105.227 18.1931 104.258 18.1931C103.272 18.1931 102.49 18.499 101.913 19.1109C101.352 19.7057 101.071 20.564 101.071 21.6857V29.4868H97.5021V15.3633H101.071V17.1223C101.547 16.5105 102.15 16.0346 102.881 15.6947C103.629 15.3378 104.445 15.1593 105.329 15.1593ZM119.889 15.1338C120.943 15.1338 121.869 15.3463 122.668 15.7712C123.467 16.1791 124.095 16.7144 124.554 17.3773V15.3633H128.149V29.5888C128.149 30.8974 127.885 32.0616 127.359 33.0814C126.832 34.1181 126.041 34.9339 124.988 35.5288C123.934 36.1406 122.659 36.4466 121.164 36.4466C119.158 36.4466 117.51 35.9792 116.218 35.0444C114.943 34.1096 114.221 32.835 114.051 31.2204H117.595C117.781 31.8662 118.181 32.3761 118.793 32.75C119.422 33.1409 120.178 33.3363 121.062 33.3363C122.098 33.3363 122.94 33.0219 123.586 32.3931C124.231 31.7812 124.554 30.8464 124.554 29.5888V27.3963C124.095 28.0591 123.458 28.6115 122.642 29.0534C121.843 29.4953 120.926 29.7162 119.889 29.7162C118.699 29.7162 117.612 29.4103 116.626 28.7985C115.64 28.1866 114.858 27.3283 114.28 26.2236C113.719 25.1019 113.439 23.8187 113.439 22.374C113.439 20.9464 113.719 19.6802 114.28 18.5755C114.858 17.4708 115.631 16.621 116.6 16.0261C117.586 15.4313 118.682 15.1338 119.889 15.1338ZM124.554 22.425C124.554 21.5582 124.384 20.8189 124.044 20.2071C123.704 19.5782 123.246 19.1024 122.668 18.7794C122.09 18.4395 121.47 18.2696 120.807 18.2696C120.144 18.2696 119.532 18.431 118.971 18.7539C118.41 19.0769 117.951 19.5527 117.595 20.1816C117.255 20.7934 117.085 21.5243 117.085 22.374C117.085 23.2238 117.255 23.9717 117.595 24.6175C117.951 25.2463 118.41 25.7307 118.971 26.0706C119.549 26.4105 120.161 26.5805 120.807 26.5805C121.47 26.5805 122.09 26.419 122.668 26.0961C123.246 25.7562 123.704 25.2803 124.044 24.6685C124.384 24.0396 124.554 23.2918 124.554 22.425ZM133.215 29.6652C132.57 29.6652 132.034 29.4698 131.609 29.0789C131.201 28.671 130.997 28.1696 130.997 27.5748C130.997 26.9799 131.201 26.487 131.609 26.0961C132.034 25.6882 132.57 25.4843 133.215 25.4843C133.844 25.4843 134.363 25.6882 134.77 26.0961C135.178 26.487 135.382 26.9799 135.382 27.5748C135.382 28.1696 135.178 28.671 134.77 29.0789C134.363 29.4698 133.844 29.6652 133.215 29.6652ZM90.1541 41.6922C92.0237 41.6922 93.6638 42.0576 95.0744 42.7884C96.5021 43.5192 97.5983 44.5645 98.3631 45.9241C99.1449 47.2668 99.5358 48.8304 99.5358 50.615C99.5358 52.3995 99.1449 53.9632 98.3631 55.3058C97.5983 56.6315 96.5021 57.6597 95.0744 58.3906C93.6638 59.1214 92.0237 59.4868 90.1541 59.4868H83.9337V41.6922H90.1541ZM90.0267 56.453C91.8962 56.453 93.3409 55.9432 94.3606 54.9234C95.3804 53.9037 95.8902 52.4675 95.8902 50.615C95.8902 48.7624 95.3804 47.3178 94.3606 46.2811C93.3409 45.2273 91.8962 44.7004 90.0267 44.7004H87.5028V56.453H90.0267ZM104.018 43.6807C103.389 43.6807 102.862 43.4852 102.437 43.0943C102.029 42.6864 101.825 42.1851 101.825 41.5902C101.825 40.9954 102.029 40.5025 102.437 40.1116C102.862 39.7037 103.389 39.4997 104.018 39.4997C104.646 39.4997 105.165 39.7037 105.573 40.1116C105.998 40.5025 106.21 40.9954 106.21 41.5902C106.21 42.1851 105.998 42.6864 105.573 43.0943C105.165 43.4852 104.646 43.6807 104.018 43.6807ZM105.777 45.3633V59.4868H102.207V45.3633H105.777ZM114.835 45.1338C115.889 45.1338 116.815 45.3463 117.614 45.7712C118.413 46.1791 119.041 46.7144 119.5 47.3773V45.3633H123.095V59.5888C123.095 60.8974 122.832 62.0616 122.305 63.0814C121.778 64.1181 120.987 64.9339 119.934 65.5288C118.88 66.1406 117.605 66.4466 116.11 66.4466C114.104 66.4466 112.456 65.9792 111.164 65.0444C109.889 64.1096 109.167 62.835 108.997 61.2204H112.541C112.728 61.8662 113.127 62.3761 113.739 62.75C114.368 63.1409 115.124 63.3363 116.008 63.3363C117.044 63.3363 117.886 63.0219 118.532 62.3931C119.177 61.7812 119.5 60.8464 119.5 59.5888V57.3963C119.041 58.0591 118.404 58.6115 117.588 59.0534C116.79 59.4953 115.872 59.7162 114.835 59.7162C113.645 59.7162 112.558 59.4103 111.572 58.7985C110.586 58.1866 109.804 57.3283 109.226 56.2236C108.666 55.1019 108.385 53.8187 108.385 52.374C108.385 50.9464 108.666 49.6802 109.226 48.5755C109.804 47.4708 110.578 46.621 111.546 46.0261C112.532 45.4313 113.628 45.1338 114.835 45.1338ZM119.5 52.425C119.5 51.5582 119.33 50.8189 118.99 50.2071C118.651 49.5782 118.192 49.1024 117.614 48.7794C117.036 48.4395 116.416 48.2696 115.753 48.2696C115.09 48.2696 114.478 48.431 113.917 48.7539C113.356 49.0769 112.898 49.5527 112.541 50.1816C112.201 50.7934 112.031 51.5243 112.031 52.374C112.031 53.2238 112.201 53.9717 112.541 54.6175C112.898 55.2463 113.356 55.7307 113.917 56.0706C114.495 56.4105 115.107 56.5805 115.753 56.5805C116.416 56.5805 117.036 56.419 117.614 56.0961C118.192 55.7562 118.651 55.2803 118.99 54.6685C119.33 54.0396 119.5 53.2918 119.5 52.425ZM128.391 43.6807C127.762 43.6807 127.235 43.4852 126.81 43.0943C126.402 42.6864 126.198 42.1851 126.198 41.5902C126.198 40.9954 126.402 40.5025 126.81 40.1116C127.235 39.7037 127.762 39.4997 128.391 39.4997C129.02 39.4997 129.538 39.7037 129.946 40.1116C130.371 40.5025 130.583 40.9954 130.583 41.5902C130.583 42.1851 130.371 42.6864 129.946 43.0943C129.538 43.4852 129.02 43.6807 128.391 43.6807ZM130.15 45.3633V59.4868H126.581V45.3633H130.15ZM137.832 48.2951V55.1274C137.832 55.6032 137.942 55.9517 138.163 56.1726C138.401 56.3766 138.792 56.4785 139.336 56.4785H140.993V59.4868H138.749C135.741 59.4868 134.237 58.0251 134.237 55.1019V48.2951H132.555V45.3633H134.237V41.8706H137.832V45.3633H140.993V48.2951H137.832ZM142.642 52.374C142.642 50.9464 142.923 49.6802 143.484 48.5755C144.061 47.4708 144.835 46.621 145.803 46.0261C146.789 45.4313 147.885 45.1338 149.092 45.1338C150.146 45.1338 151.064 45.3463 151.845 45.7712C152.644 46.1961 153.282 46.7314 153.758 47.3773V45.3633H157.352V59.4868H153.758V57.4218C153.299 58.0846 152.661 58.637 151.845 59.0789C151.047 59.5038 150.12 59.7162 149.067 59.7162C147.877 59.7162 146.789 59.4103 145.803 58.7985C144.835 58.1866 144.061 57.3283 143.484 56.2236C142.923 55.1019 142.642 53.8187 142.642 52.374ZM153.758 52.425C153.758 51.5582 153.588 50.8189 153.248 50.2071C152.908 49.5782 152.449 49.1024 151.871 48.7794C151.293 48.4395 150.673 48.2696 150.01 48.2696C149.347 48.2696 148.735 48.431 148.174 48.7539C147.614 49.0769 147.155 49.5527 146.798 50.1816C146.458 50.7934 146.288 51.5243 146.288 52.374C146.288 53.2238 146.458 53.9717 146.798 54.6175C147.155 55.2463 147.614 55.7307 148.174 56.0706C148.752 56.4105 149.364 56.5805 150.01 56.5805C150.673 56.5805 151.293 56.419 151.871 56.0961C152.449 55.7562 152.908 55.2803 153.248 54.6685C153.588 54.0396 153.758 53.2918 153.758 52.425ZM164.407 40.6215V59.4868H160.838V40.6215H164.407Z" fill="#4D4D4D"/>
<path opacity="0.55" d="M15.9048 1.76718L60.0847 15.9047V60.0846L15.9048 45.9471V1.76718Z" fill="#4D4D4D"/>
<path d="M0 5.30157L44.1799 19.4391V63.619L12.286 53.413C6.3608 51.5169 3.39822 50.5689 1.69911 48.2412C0 45.9135 0 42.8029 0 36.5818V5.30157Z" fill="#4D4D4D"/>
</svg>
