<svg width="48" height="49" viewBox="0 0 48 49" fill="none" xmlns="http://www.w3.org/2000/svg">
<g id="SignOut">
<path id="Vector" d="M22.5 41.3095C22.5 41.7073 22.342 42.0889 22.0607 42.3702C21.7794 42.6515 21.3978 42.8095 21 42.8095H9C8.60218 42.8095 8.22064 42.6515 7.93934 42.3702C7.65804 42.0889 7.5 41.7073 7.5 41.3095V8.30951C7.5 7.91168 7.65804 7.53015 7.93934 7.24885C8.22064 6.96754 8.60218 6.80951 9 6.80951H21C21.3978 6.80951 21.7794 6.96754 22.0607 7.24885C22.342 7.53015 22.5 7.91168 22.5 8.30951C22.5 8.70733 22.342 9.08886 22.0607 9.37017C21.7794 9.65147 21.3978 9.80951 21 9.80951H10.5V39.8095H21C21.3978 39.8095 21.7794 39.9675 22.0607 40.2488C22.342 40.5302 22.5 40.9117 22.5 41.3095ZM43.0612 23.7483L35.5613 16.2483C35.2798 15.9668 34.898 15.8087 34.5 15.8087C34.102 15.8087 33.7202 15.9668 33.4387 16.2483C33.1573 16.5297 32.9992 16.9115 32.9992 17.3095C32.9992 17.7076 33.1573 18.0893 33.4387 18.3708L38.3794 23.3095H21C20.6022 23.3095 20.2206 23.4675 19.9393 23.7488C19.658 24.0302 19.5 24.4117 19.5 24.8095C19.5 25.2073 19.658 25.5889 19.9393 25.8702C20.2206 26.1515 20.6022 26.3095 21 26.3095H38.3794L33.4387 31.2483C33.1573 31.5297 32.9992 31.9115 32.9992 32.3095C32.9992 32.7076 33.1573 33.0893 33.4387 33.3708C33.7202 33.6522 34.102 33.8103 34.5 33.8103C34.898 33.8103 35.2798 33.6522 35.5613 33.3708L43.0612 25.8708C43.2007 25.7315 43.3114 25.566 43.3868 25.3839C43.4623 25.2018 43.5012 25.0066 43.5012 24.8095C43.5012 24.6124 43.4623 24.4172 43.3868 24.2351C43.3114 24.053 43.2007 23.8876 43.0612 23.7483Z" fill="black"/>
</g>
</svg>
